<svg width="36" height="24" viewBox="0 0 36 24" fill="none" xmlns="http://www.w3.org/2000/svg">
<path d="M19.0938 12.7365C21.2533 12.7365 23.0202 15.0063 23.0202 15.5738C23.0202 16.1412 21.2533 18.0328 19.0938 18.0328C16.9343 18.0328 15.3637 15.5738 15.3637 15.5738C15.3637 15.5738 16.9343 12.7364 19.0938 12.7365Z" fill="#FFFEFD"/>
<path d="M13.0078 13.3039L15.3637 15.5738M15.3637 15.5738L13.0078 17.8436M15.3637 15.5738C15.3637 15.5738 16.9343 18.0328 19.0938 18.0328C21.2533 18.0328 23.0202 16.1412 23.0202 15.5738C23.0202 15.0063 21.2533 12.7365 19.0938 12.7365C16.9343 12.7364 15.3637 15.5738 15.3637 15.5738Z" stroke="#FFFEFD" stroke-width="2" stroke-linecap="round" stroke-linejoin="round"/>
<mask id="path-3-inside-1" fill="white">
<path d="M35.4623 22.4139L33.2689 7.64003C33.1969 7.15487 32.765 6.79413 32.2555 6.79413H29.5689C29.0965 4.75314 27.2355 4.14867 27.0302 4.08299C26.023 2.13924 23.9506 2.04892 23.728 2.04148C22.4987 0.764549 20.8444 0.758392 19.9627 0.976474C19.1781 0.526968 17.5891 0.0872121 16.0371 0.976474C15.1552 0.758392 13.5006 0.764806 12.2716 2.04148C12.0513 2.04892 9.97606 2.13924 8.96934 4.08324C8.76058 4.14995 6.90179 4.75725 6.43069 6.79413H3.74433C3.23484 6.79413 2.80294 7.15487 2.73095 7.64003L0.537825 22.4139C0.4957 22.6967 0.583415 22.983 0.777773 23.1988C0.972131 23.4145 1.25447 23.5385 1.55121 23.5385H34.4486C34.7454 23.5385 35.0275 23.4145 35.2221 23.1988C35.4164 22.983 35.5041 22.6967 35.4623 22.4139ZM9.45358 5.14517C9.87002 5.09796 10.2142 4.81112 10.3227 4.4214C10.5291 3.67889 11.8588 3.14985 12.5816 3.26761C12.9962 3.33535 13.4116 3.15216 13.6289 2.80605C14.0192 2.1849 15.0667 1.88318 15.7511 2.20594C16.1291 2.38425 16.5821 2.32165 16.8927 2.04815C17.4502 1.55734 18.5478 1.55554 19.1074 2.04815C19.418 2.32165 19.8707 2.38425 20.249 2.20594C20.9238 1.8878 22.3677 2.17592 22.7636 2.80605C22.9812 3.15242 23.3966 3.33509 23.8111 3.26761C24.5467 3.14728 25.8671 3.69146 26.07 4.4214C26.1783 4.81112 26.5227 5.09796 26.9389 5.14517C27.0381 5.15646 27.779 6.04059 28.1904 6.79439H7.8092C8.18512 6.10474 9.25255 5.16801 9.45358 5.14517ZM1.55356 22.703L3.84713 7.62964H32.1527L34.4463 22.703H1.55356Z"/>
<path d="M9.45358 5.14517C9.87002 5.09796 10.2142 4.81112 10.3227 4.4214C10.5291 3.67889 11.8588 3.14985 12.5816 3.26761C12.9962 3.33535 13.4116 3.15216 13.6289 2.80605C14.0192 2.1849 15.0667 1.88318 15.7511 2.20594C16.1291 2.38425 16.5821 2.32165 16.8927 2.04815C17.4502 1.55734 18.5478 1.55554 19.1074 2.04815C19.418 2.32165 19.8707 2.38425 20.249 2.20594C20.9238 1.8878 22.3677 2.17592 22.7636 2.80605C22.9812 3.15242 23.3966 3.33509 23.8111 3.26761C24.5467 3.14728 25.8671 3.69146 26.07 4.4214C26.1783 4.81112 26.5227 5.09796 26.9389 5.14517C27.0381 5.15646 27.779 6.04059 28.1904 6.79439H7.8092C8.18512 6.10474 9.25255 5.16801 9.45358 5.14517Z"/>
</mask>
<path d="M35.4623 22.4139L33.2689 7.64003C33.1969 7.15487 32.765 6.79413 32.2555 6.79413H29.5689C29.0965 4.75314 27.2355 4.14867 27.0302 4.08299C26.023 2.13924 23.9506 2.04892 23.728 2.04148C22.4987 0.764549 20.8444 0.758392 19.9627 0.976474C19.1781 0.526968 17.5891 0.0872121 16.0371 0.976474C15.1552 0.758392 13.5006 0.764806 12.2716 2.04148C12.0513 2.04892 9.97606 2.13924 8.96934 4.08324C8.76058 4.14995 6.90179 4.75725 6.43069 6.79413H3.74433C3.23484 6.79413 2.80294 7.15487 2.73095 7.64003L0.537825 22.4139C0.4957 22.6967 0.583415 22.983 0.777773 23.1988C0.972131 23.4145 1.25447 23.5385 1.55121 23.5385H34.4486C34.7454 23.5385 35.0275 23.4145 35.2221 23.1988C35.4164 22.983 35.5041 22.6967 35.4623 22.4139ZM9.45358 5.14517C9.87002 5.09796 10.2142 4.81112 10.3227 4.4214C10.5291 3.67889 11.8588 3.14985 12.5816 3.26761C12.9962 3.33535 13.4116 3.15216 13.6289 2.80605C14.0192 2.1849 15.0667 1.88318 15.7511 2.20594C16.1291 2.38425 16.5821 2.32165 16.8927 2.04815C17.4502 1.55734 18.5478 1.55554 19.1074 2.04815C19.418 2.32165 19.8707 2.38425 20.249 2.20594C20.9238 1.8878 22.3677 2.17592 22.7636 2.80605C22.9812 3.15242 23.3966 3.33509 23.8111 3.26761C24.5467 3.14728 25.8671 3.69146 26.07 4.4214C26.1783 4.81112 26.5227 5.09796 26.9389 5.14517C27.0381 5.15646 27.779 6.04059 28.1904 6.79439H7.8092C8.18512 6.10474 9.25255 5.16801 9.45358 5.14517ZM1.55356 22.703L3.84713 7.62964H32.1527L34.4463 22.703H1.55356Z" fill="#FFFEFD"/>
<path d="M9.45358 5.14517C9.87002 5.09796 10.2142 4.81112 10.3227 4.4214C10.5291 3.67889 11.8588 3.14985 12.5816 3.26761C12.9962 3.33535 13.4116 3.15216 13.6289 2.80605C14.0192 2.1849 15.0667 1.88318 15.7511 2.20594C16.1291 2.38425 16.5821 2.32165 16.8927 2.04815C17.4502 1.55734 18.5478 1.55554 19.1074 2.04815C19.418 2.32165 19.8707 2.38425 20.249 2.20594C20.9238 1.8878 22.3677 2.17592 22.7636 2.80605C22.9812 3.15242 23.3966 3.33509 23.8111 3.26761C24.5467 3.14728 25.8671 3.69146 26.07 4.4214C26.1783 4.81112 26.5227 5.09796 26.9389 5.14517C27.0381 5.15646 27.779 6.04059 28.1904 6.79439H7.8092C8.18512 6.10474 9.25255 5.16801 9.45358 5.14517Z" fill="#FFFEFD"/>
<path d="M35.4623 22.4139L33.2689 7.64003C33.1969 7.15487 32.765 6.79413 32.2555 6.79413H29.5689C29.0965 4.75314 27.2355 4.14867 27.0302 4.08299C26.023 2.13924 23.9506 2.04892 23.728 2.04148C22.4987 0.764549 20.8444 0.758392 19.9627 0.976474C19.1781 0.526968 17.5891 0.0872121 16.0371 0.976474C15.1552 0.758392 13.5006 0.764806 12.2716 2.04148C12.0513 2.04892 9.97606 2.13924 8.96934 4.08324C8.76058 4.14995 6.90179 4.75725 6.43069 6.79413H3.74433C3.23484 6.79413 2.80294 7.15487 2.73095 7.64003L0.537825 22.4139C0.4957 22.6967 0.583415 22.983 0.777773 23.1988C0.972131 23.4145 1.25447 23.5385 1.55121 23.5385H34.4486C34.7454 23.5385 35.0275 23.4145 35.2221 23.1988C35.4164 22.983 35.5041 22.6967 35.4623 22.4139ZM9.45358 5.14517C9.87002 5.09796 10.2142 4.81112 10.3227 4.4214C10.5291 3.67889 11.8588 3.14985 12.5816 3.26761C12.9962 3.33535 13.4116 3.15216 13.6289 2.80605C14.0192 2.1849 15.0667 1.88318 15.7511 2.20594C16.1291 2.38425 16.5821 2.32165 16.8927 2.04815C17.4502 1.55734 18.5478 1.55554 19.1074 2.04815C19.418 2.32165 19.8707 2.38425 20.249 2.20594C20.9238 1.8878 22.3677 2.17592 22.7636 2.80605C22.9812 3.15242 23.3966 3.33509 23.8111 3.26761C24.5467 3.14728 25.8671 3.69146 26.07 4.4214C26.1783 4.81112 26.5227 5.09796 26.9389 5.14517C27.0381 5.15646 27.779 6.04059 28.1904 6.79439H7.8092C8.18512 6.10474 9.25255 5.16801 9.45358 5.14517ZM1.55356 22.703L3.84713 7.62964H32.1527L34.4463 22.703H1.55356Z" stroke="#FFFEFD" stroke-width="2" mask="url(#path-3-inside-1)"/>
<path d="M9.45358 5.14517C9.87002 5.09796 10.2142 4.81112 10.3227 4.4214C10.5291 3.67889 11.8588 3.14985 12.5816 3.26761C12.9962 3.33535 13.4116 3.15216 13.6289 2.80605C14.0192 2.1849 15.0667 1.88318 15.7511 2.20594C16.1291 2.38425 16.5821 2.32165 16.8927 2.04815C17.4502 1.55734 18.5478 1.55554 19.1074 2.04815C19.418 2.32165 19.8707 2.38425 20.249 2.20594C20.9238 1.8878 22.3677 2.17592 22.7636 2.80605C22.9812 3.15242 23.3966 3.33509 23.8111 3.26761C24.5467 3.14728 25.8671 3.69146 26.07 4.4214C26.1783 4.81112 26.5227 5.09796 26.9389 5.14517C27.0381 5.15646 27.779 6.04059 28.1904 6.79439H7.8092C8.18512 6.10474 9.25255 5.16801 9.45358 5.14517Z" stroke="#FFFEFD" stroke-width="2" mask="url(#path-3-inside-1)"/>
</svg>
